<?xml version="1.0" standalone="no"?>
<!DOCTYPE svg PUBLIC "-//W3C//DTD SVG 20010904//EN"
 "http://www.w3.org/TR/2001/REC-SVG-20010904/DTD/svg10.dtd">
<svg version="1.0" xmlns="http://www.w3.org/2000/svg"
 width="300.000000pt" height="300.000000pt" viewBox="0 0 300.000000 300.000000"
 preserveAspectRatio="xMidYMid meet">
<metadata>
Created by potrace 1.14, written by Peter Selinger 2001-2017
</metadata>
<g transform="translate(0.000000,300.000000) scale(0.100000,-0.100000)"
fill="#000000" stroke="none">
<path d="M1235 2850 c-315 -49 -592 -194 -812 -424 -199 -208 -325 -464 -369
-751 -21 -131 -13 -374 15 -495 113 -492 461 -876 931 -1029 146 -48 256 -64
430 -64 185 0 299 19 457 74 582 206 959 762 930 1373 -7 142 -26 243 -72 383
-98 295 -307 560 -581 735 -113 72 -288 143 -444 179 -98 23 -385 34 -485 19z"/>
</g>
</svg>
